<svg width="26" height="32" viewBox="0 0 26 32" fill="none" xmlns="http://www.w3.org/2000/svg">
<path d="M17.1115 13.28L13.3143 17.0489L9.4992 13.28L6.9737 15.7867L10.7888 19.5556L6.99161 23.3244L9.51711 25.8311L13.3143 22.0622L17.1115 25.8311L19.637 23.3244L15.8398 19.5556L19.637 15.7867L17.1115 13.28ZM19.5833 1.77778L17.7922 0H8.83648L7.04535 1.77778H0.776367V5.33333H25.8523V1.77778H19.5833ZM2.5675 28.4444C2.5675 30.4 4.17953 32 6.14978 32H20.4789C22.4491 32 24.0611 30.4 24.0611 28.4444V7.11111H2.5675V28.4444ZM6.14978 10.6667H20.4789V28.4444H6.14978V10.6667Z" fill="#B82525"/>
</svg>
