<svg width="34" height="27" viewBox="0 0 34 27" fill="none" xmlns="http://www.w3.org/2000/svg">
<path d="M3.38825 0.121948C2.77799 0.121948 2.18144 0.301526 1.67403 0.637974C1.16662 0.974421 0.771142 1.45263 0.537607 2.01212C0.304071 2.57161 0.242968 3.18726 0.362023 3.78121C0.481078 4.37516 0.774945 4.92075 1.20646 5.34896C1.63798 5.77718 2.18777 6.0688 2.7863 6.18694C3.38483 6.30509 4.00522 6.24445 4.56903 6.0127C5.13283 5.78095 5.61472 5.3885 5.95376 4.88497C6.2928 4.38144 6.47376 3.78945 6.47376 3.18386C6.47376 2.37179 6.14868 1.59298 5.57004 1.01876C4.99139 0.444542 4.20658 0.121948 3.38825 0.121948ZM3.38825 10.3283C2.77799 10.3283 2.18144 10.5079 1.67403 10.8444C1.16662 11.1808 0.771142 11.659 0.537607 12.2185C0.304071 12.778 0.242968 13.3936 0.362023 13.9876C0.481078 14.5815 0.774945 15.1271 1.20646 15.5553C1.63798 15.9836 2.18777 16.2752 2.7863 16.3933C3.38483 16.5115 4.00522 16.4508 4.56903 16.2191C5.13283 15.9873 5.61472 15.5949 5.95376 15.0913C6.2928 14.5878 6.47376 13.9958 6.47376 13.3902C6.47376 12.5782 6.14868 11.7994 5.57004 11.2251C4.99139 10.6509 4.20658 10.3283 3.38825 10.3283ZM3.38825 20.5347C2.77799 20.5347 2.18144 20.7143 1.67403 21.0507C1.16662 21.3872 0.771142 21.8654 0.537607 22.4249C0.304071 22.9844 0.242968 23.6 0.362023 24.194C0.481078 24.7879 0.774945 25.3335 1.20646 25.7617C1.63798 26.1899 2.18777 26.4816 2.7863 26.5997C3.38483 26.7178 4.00522 26.6572 4.56903 26.4255C5.13283 26.1937 5.61472 25.8013 5.95376 25.2977C6.2928 24.7942 6.47376 24.2022 6.47376 23.5966C6.47376 22.7845 6.14868 22.0057 5.57004 21.4315C4.99139 20.8573 4.20658 20.5347 3.38825 20.5347ZM32.1864 21.5553H11.6163C11.3435 21.5553 11.0819 21.6629 10.889 21.8543C10.6961 22.0457 10.5878 22.3053 10.5878 22.576V24.6173C10.5878 24.8879 10.6961 25.1475 10.889 25.339C11.0819 25.5304 11.3435 25.6379 11.6163 25.6379H32.1864C32.4592 25.6379 32.7208 25.5304 32.9137 25.339C33.1065 25.1475 33.2149 24.8879 33.2149 24.6173V22.576C33.2149 22.3053 33.1065 22.0457 32.9137 21.8543C32.7208 21.6629 32.4592 21.5553 32.1864 21.5553ZM32.1864 1.14259H11.6163C11.3435 1.14259 11.0819 1.25012 10.889 1.44152C10.6961 1.63293 10.5878 1.89253 10.5878 2.16322V4.2045C10.5878 4.47519 10.6961 4.73479 10.889 4.9262C11.0819 5.11761 11.3435 5.22514 11.6163 5.22514H32.1864C32.4592 5.22514 32.7208 5.11761 32.9137 4.9262C33.1065 4.73479 33.2149 4.47519 33.2149 4.2045V2.16322C33.2149 1.89253 33.1065 1.63293 32.9137 1.44152C32.7208 1.25012 32.4592 1.14259 32.1864 1.14259ZM32.1864 11.349H11.6163C11.3435 11.349 11.0819 11.4565 10.889 11.6479C10.6961 11.8393 10.5878 12.0989 10.5878 12.3696V14.4109C10.5878 14.6816 10.6961 14.9412 10.889 15.1326C11.0819 15.324 11.3435 15.4315 11.6163 15.4315H32.1864C32.4592 15.4315 32.7208 15.324 32.9137 15.1326C33.1065 14.9412 33.2149 14.6816 33.2149 14.4109V12.3696C33.2149 12.0989 33.1065 11.8393 32.9137 11.6479C32.7208 11.4565 32.4592 11.349 32.1864 11.349Z" fill="#353434"/>
</svg>
