<svg width="434" height="314" viewBox="0 0 434 314" fill="none" xmlns="http://www.w3.org/2000/svg">
<path d="M276.567 235.396V311.089H86.5757C64.9288 311.089 47.3167 294.11 47.3167 273.242C47.3167 252.374 64.9288 235.396 86.5757 235.396H276.567Z" fill="#F2F2F2"/>
<path d="M281.233 310.506C281.233 311.278 280.925 312.019 280.379 312.565C279.832 313.111 279.09 313.417 278.316 313.418H83.1915C72.5939 313.418 62.4303 309.216 54.9367 301.736C47.443 294.256 43.2332 284.111 43.2332 273.534C43.2332 262.956 47.443 252.811 54.9367 245.331C62.4303 237.851 72.5939 233.649 83.1915 233.649H278.316C279.09 233.649 279.832 233.956 280.379 234.502C280.926 235.048 281.233 235.788 281.233 236.561C281.233 237.333 280.926 238.073 280.379 238.619C279.832 239.165 279.09 239.472 278.316 239.472H83.1915C74.141 239.472 65.4611 243.06 59.0615 249.448C52.6618 255.836 49.0665 264.5 49.0665 273.534C49.0665 282.567 52.6618 291.231 59.0615 297.619C65.4611 304.007 74.141 307.595 83.1915 307.595H278.316C279.09 307.596 279.832 307.902 280.379 308.448C280.925 308.994 281.233 309.734 281.233 310.506Z" fill="#3F905C"/>
<path d="M276.567 252.864H72.4C72.2453 252.864 72.0969 252.802 71.9875 252.693C71.8781 252.584 71.8167 252.436 71.8167 252.281C71.8167 252.127 71.8781 251.979 71.9875 251.87C72.0969 251.76 72.2453 251.699 72.4 251.699H276.567C276.721 251.699 276.87 251.76 276.979 251.87C277.089 251.979 277.15 252.127 277.15 252.281C277.15 252.436 277.089 252.584 276.979 252.693C276.87 252.802 276.721 252.864 276.567 252.864Z" fill="#CCCCCC"/>
<path d="M276.567 266.838H72.4C72.2453 266.838 72.0969 266.776 71.9875 266.667C71.8781 266.558 71.8167 266.41 71.8167 266.255C71.8167 266.101 71.8781 265.953 71.9875 265.844C72.0969 265.735 72.2453 265.673 72.4 265.673H276.567C276.721 265.673 276.87 265.735 276.979 265.844C277.089 265.953 277.15 266.101 277.15 266.255C277.15 266.41 277.089 266.558 276.979 266.667C276.87 266.776 276.721 266.838 276.567 266.838Z" fill="#CCCCCC"/>
<path d="M276.567 280.812H72.4C72.2453 280.812 72.0969 280.75 71.9875 280.641C71.8781 280.532 71.8167 280.384 71.8167 280.229C71.8167 280.075 71.8781 279.927 71.9875 279.818C72.0969 279.709 72.2453 279.647 72.4 279.647H276.567C276.721 279.647 276.87 279.709 276.979 279.818C277.089 279.927 277.15 280.075 277.15 280.229C277.15 280.384 277.089 280.532 276.979 280.641C276.87 280.75 276.721 280.812 276.567 280.812Z" fill="#CCCCCC"/>
<path d="M276.567 294.786H72.4C72.2453 294.786 72.0969 294.724 71.9875 294.615C71.8781 294.506 71.8167 294.358 71.8167 294.203C71.8167 294.049 71.8781 293.901 71.9875 293.792C72.0969 293.683 72.2453 293.621 72.4 293.621H276.567C276.721 293.621 276.87 293.683 276.979 293.792C277.089 293.901 277.15 294.049 277.15 294.203C277.15 294.358 277.089 294.506 276.979 294.615C276.87 294.724 276.721 294.786 276.567 294.786Z" fill="#CCCCCC"/>
<path d="M423.402 249.644L375.822 308.585L227.88 189.601C211.024 176.045 207.982 151.794 221.1 135.545C234.217 119.296 258.604 117.105 275.46 130.661L423.402 249.644Z" fill="#F2F2F2"/>
<path d="M379.822 311.054C379.337 311.655 378.632 312.039 377.863 312.121C377.094 312.204 376.324 311.978 375.721 311.494L223.781 189.296C215.529 182.659 210.256 173.022 209.123 162.505C207.989 151.987 211.088 141.451 217.737 133.214C224.386 124.978 234.041 119.715 244.578 118.583C255.115 117.452 265.67 120.545 273.922 127.182L425.862 249.38C426.161 249.62 426.409 249.916 426.593 250.252C426.777 250.587 426.893 250.956 426.934 251.336C426.975 251.716 426.94 252.101 426.832 252.468C426.725 252.835 426.545 253.177 426.305 253.475C426.065 253.772 425.768 254.02 425.431 254.203C425.095 254.387 424.726 254.502 424.345 254.543C423.964 254.584 423.579 254.549 423.211 254.441C422.843 254.333 422.501 254.154 422.202 253.914L270.263 131.715C266.773 128.907 262.764 126.812 258.463 125.551C254.162 124.289 249.655 123.886 245.198 124.363C240.741 124.841 236.422 126.19 232.488 128.334C228.554 130.479 225.081 133.375 222.269 136.859C219.456 140.343 217.359 144.346 216.097 148.639C214.835 152.932 214.432 157.432 214.913 161.88C215.393 166.328 216.747 170.639 218.896 174.565C221.046 178.491 223.95 181.956 227.441 184.762L379.381 306.96C379.983 307.445 380.368 308.148 380.45 308.916C380.533 309.683 380.307 310.452 379.822 311.054Z" fill="#CCCCCC"/>
<path d="M412.422 263.246L253.441 135.385C253.382 135.337 253.332 135.278 253.295 135.211C253.259 135.144 253.235 135.07 253.227 134.994C253.219 134.918 253.226 134.841 253.248 134.768C253.269 134.694 253.305 134.626 253.353 134.566C253.401 134.507 253.46 134.457 253.528 134.421C253.595 134.384 253.669 134.361 253.745 134.353C253.821 134.345 253.898 134.351 253.972 134.373C254.045 134.395 254.114 134.43 254.173 134.478L413.154 262.339C413.214 262.387 413.263 262.446 413.3 262.513C413.337 262.581 413.36 262.654 413.368 262.73C413.377 262.806 413.37 262.883 413.348 262.957C413.327 263.03 413.291 263.099 413.243 263.158C413.195 263.218 413.135 263.267 413.068 263.304C413.001 263.341 412.927 263.364 412.85 263.372C412.774 263.38 412.697 263.373 412.624 263.352C412.55 263.33 412.481 263.294 412.422 263.246V263.246Z" fill="#CCCCCC"/>
<path d="M403.638 274.127L244.657 146.266C244.537 146.169 244.46 146.029 244.444 145.875C244.428 145.722 244.473 145.568 244.57 145.448C244.667 145.328 244.808 145.251 244.961 145.235C245.115 145.218 245.269 145.263 245.389 145.36L404.37 273.22C404.43 273.268 404.479 273.328 404.516 273.395C404.553 273.462 404.576 273.536 404.585 273.612C404.593 273.688 404.586 273.765 404.564 273.838C404.543 273.912 404.507 273.98 404.459 274.04C404.411 274.099 404.351 274.149 404.284 274.185C404.217 274.222 404.143 274.245 404.067 274.253C403.99 274.261 403.913 274.254 403.84 274.233C403.766 274.211 403.698 274.175 403.638 274.127Z" fill="#CCCCCC"/>
<path d="M394.854 285.009L235.874 157.148C235.753 157.051 235.676 156.91 235.66 156.757C235.643 156.603 235.688 156.449 235.785 156.329C235.882 156.209 236.023 156.132 236.177 156.115C236.331 156.099 236.485 156.144 236.606 156.241L395.586 284.102C395.646 284.15 395.695 284.209 395.732 284.276C395.769 284.343 395.792 284.417 395.8 284.493C395.808 284.569 395.801 284.646 395.78 284.719C395.758 284.793 395.722 284.861 395.674 284.921C395.626 284.98 395.567 285.03 395.5 285.066C395.433 285.103 395.359 285.126 395.283 285.134C395.206 285.142 395.129 285.135 395.056 285.114C394.982 285.092 394.914 285.057 394.854 285.009V285.009Z" fill="#CCCCCC"/>
<path d="M386.07 295.89L227.09 168.029C227.03 167.981 226.98 167.922 226.944 167.855C226.907 167.788 226.884 167.714 226.876 167.638C226.867 167.562 226.874 167.485 226.896 167.412C226.918 167.338 226.953 167.27 227.001 167.21C227.05 167.151 227.109 167.101 227.176 167.065C227.243 167.028 227.317 167.005 227.393 166.997C227.469 166.989 227.546 166.995 227.62 167.017C227.693 167.039 227.762 167.074 227.822 167.122L386.802 294.983C386.862 295.031 386.912 295.09 386.948 295.157C386.985 295.225 387.008 295.298 387.017 295.374C387.025 295.45 387.018 295.527 386.997 295.601C386.975 295.674 386.939 295.743 386.891 295.802C386.843 295.862 386.783 295.911 386.716 295.948C386.649 295.985 386.575 296.008 386.499 296.016C386.423 296.024 386.345 296.017 386.272 295.995C386.198 295.974 386.13 295.938 386.07 295.89Z" fill="#CCCCCC"/>
<path d="M433.417 314H0.583333C0.428624 314 0.28025 313.939 0.170854 313.829C0.0614577 313.72 0 313.572 0 313.418C0 313.263 0.0614577 313.115 0.170854 313.006C0.28025 312.897 0.428624 312.836 0.583333 312.836H433.417C433.571 312.836 433.72 312.897 433.829 313.006C433.939 313.115 434 313.263 434 313.418C434 313.572 433.939 313.72 433.829 313.829C433.72 313.939 433.571 314 433.417 314Z" fill="#CCCCCC"/>
<path d="M197.214 227.44L190.545 227.44L187.374 201.765L197.216 201.766L197.214 227.44Z" fill="#FFB8B8"/>
<path d="M185.781 225.538H198.643V233.62H177.684C177.684 232.559 177.893 231.508 178.3 230.527C178.707 229.547 179.303 228.656 180.055 227.905C180.807 227.155 181.7 226.559 182.682 226.153C183.665 225.747 184.718 225.538 185.781 225.538Z" fill="#2F2E41"/>
<path d="M129.083 227.44L122.415 227.44L119.243 201.765L129.086 201.766L129.083 227.44Z" fill="#FFB8B8"/>
<path d="M117.651 225.538H130.512V233.62H109.553C109.553 232.559 109.763 231.508 110.17 230.527C110.577 229.547 111.173 228.656 111.925 227.905C112.677 227.155 113.57 226.559 114.552 226.153C115.535 225.747 116.588 225.538 117.651 225.538Z" fill="#2F2E41"/>
<path d="M151.358 36.9922V34.0809C151.358 29.1008 153.34 24.3246 156.868 20.8032C160.396 17.2817 165.181 15.3033 170.17 15.3033H170.17C175.16 15.3033 179.945 17.2817 183.473 20.8032C187.001 24.3246 188.983 29.1008 188.983 34.0809V36.9922C188.983 40.5825 187.554 44.0258 185.011 46.5646C182.467 49.1033 179.017 50.5296 175.42 50.5296H164.92C163.139 50.5296 161.376 50.1794 159.73 49.4991C158.085 48.8188 156.59 47.8216 155.33 46.5646C154.071 45.3075 153.072 43.8152 152.39 42.1727C151.709 40.5303 151.358 38.77 151.358 36.9922Z" fill="#2F2E41"/>
<path d="M170.171 51.5313C178.083 51.5313 184.498 45.1287 184.498 37.2306C184.498 29.3325 178.083 22.9299 170.171 22.9299C162.258 22.9299 155.843 29.3325 155.843 37.2306C155.843 45.1287 162.258 51.5313 170.171 51.5313Z" fill="#FFB8B8"/>
<path d="M92.2393 86.3802C92.8207 85.8322 93.5154 85.4181 94.2745 85.1671C95.0336 84.9161 95.8386 84.8343 96.6328 84.9274C97.427 85.0205 98.1911 85.2863 98.8712 85.7061C99.5514 86.1258 100.131 86.6894 100.569 87.3569L112.851 85.038L116.083 92.1441L98.693 95.1757C97.5207 95.8364 96.1462 96.045 94.8301 95.7618C93.514 95.4786 92.3477 94.7234 91.5522 93.6392C90.7567 92.555 90.3873 91.2173 90.5139 89.8794C90.6405 88.5415 91.2544 87.2965 92.2393 86.3802V86.3802Z" fill="#FFB8B8"/>
<path d="M159.001 60.5374L159.161 60.7803L139.021 74.0233L105.037 84.855C104.587 84.9995 104.2 85.2954 103.944 85.6922C103.687 86.0891 103.576 86.5624 103.63 87.0317L104.372 93.4054C104.404 93.6874 104.496 93.9596 104.64 94.2043C104.785 94.449 104.979 94.6608 105.21 94.8263C105.441 94.9918 105.705 95.1072 105.983 95.1651C106.262 95.2231 106.549 95.2223 106.828 95.1629L138.812 88.3198C140.359 87.9905 141.823 87.3473 143.112 86.4301L165.738 70.3618C166.558 69.7761 167.213 68.9885 167.638 68.0756C168.063 67.1627 168.244 66.1556 168.164 65.1521C168.081 64.1473 167.737 63.1813 167.167 62.3492C166.596 61.5171 165.818 60.8476 164.91 60.4065C164.002 59.9654 162.994 59.7679 161.986 59.8334C160.978 59.899 160.005 60.2253 159.161 60.7803L159.001 60.5374Z" fill="#CCCCCC"/>
<path d="M190.664 220.154C190.153 220.154 189.652 220.006 189.223 219.726C188.795 219.447 188.457 219.049 188.251 218.582L157.678 143.179C157.607 143.016 157.487 142.878 157.335 142.785C157.183 142.691 157.005 142.646 156.827 142.656C156.649 142.666 156.478 142.731 156.337 142.841C156.196 142.951 156.093 143.101 156.04 143.272L131.098 216.678C130.992 217.02 130.818 217.336 130.586 217.608C130.353 217.88 130.068 218.102 129.746 218.259C129.425 218.417 129.075 218.507 128.717 218.525C128.359 218.543 128.002 218.487 127.667 218.361L119.303 215.231C118.849 215.062 118.45 214.772 118.152 214.391C117.854 214.01 117.667 213.554 117.613 213.074C113.85 180.356 146.663 97.7706 146.995 96.9404L147.087 96.7104L176.998 103.315L177.06 103.382C188.994 116.377 198.803 198.337 200.649 214.635C200.717 215.224 200.583 215.819 200.268 216.321C199.953 216.823 199.476 217.204 198.915 217.399L191.533 220.005C191.254 220.104 190.96 220.154 190.664 220.154Z" fill="#2F2E41"/>
<path d="M164.892 105.973C157.645 105.973 149.566 104.531 147.079 98.5781L147.021 98.4413L147.099 98.3145C149.062 95.0996 151.656 89.6154 150.262 88.586C147.515 86.5586 146.182 83.2234 146.3 78.6729C146.557 68.7945 153.3 60.0241 163.08 56.8487H163.08C165.81 55.9767 168.588 55.2628 171.4 54.7105C173.45 54.2975 175.567 54.3429 177.597 54.8435C179.628 55.344 181.522 56.2871 183.144 57.6052C184.787 58.932 186.114 60.6053 187.032 62.5051C187.949 64.4048 188.433 66.4838 188.45 68.5927C188.553 79.1494 186.924 93.8527 178.585 103.947C178.194 104.415 177.65 104.731 177.049 104.839C173.037 105.563 168.97 105.943 164.892 105.973Z" fill="#CCCCCC"/>
<path d="M162.196 105.578C162.591 104.166 163.528 102.966 164.803 102.239C166.079 101.513 167.59 101.318 169.009 101.698C169.298 101.778 169.581 101.883 169.853 102.01L179.179 93.5387L185.664 97.8999L172.328 109.679C171.726 110.763 170.778 111.615 169.635 112.099C168.492 112.583 167.22 112.671 166.021 112.35C165.322 112.159 164.668 111.832 164.097 111.387C163.526 110.943 163.049 110.39 162.693 109.76C162.338 109.13 162.111 108.436 162.025 107.719C161.94 107.001 161.998 106.273 162.196 105.578Z" fill="#FFB8B8"/>
<path d="M177.702 105.685C177.097 105.686 176.51 105.477 176.042 105.094L172.365 102.095C172.058 101.845 171.812 101.528 171.645 101.17C171.478 100.812 171.395 100.42 171.401 100.025C171.407 99.6302 171.503 99.2415 171.681 98.8885C171.858 98.5355 172.114 98.2272 172.428 97.9867L187.852 86.1788C188.035 86.0381 188.155 85.8312 188.186 85.6029C188.217 85.3745 188.157 85.1432 188.018 84.9591L178.498 72.3964C177.392 70.9417 176.837 69.1433 176.932 67.3195C177.026 65.4958 177.764 63.7643 179.015 62.4316C180.333 61.0114 182.137 60.1374 184.07 59.9831C186.003 59.8288 187.923 60.4054 189.45 61.5985L189.51 61.662L199.451 75.8703C200.526 76.7116 201.392 77.7895 201.98 79.0199C202.569 80.2503 202.865 81.5999 202.844 82.9633C202.824 84.3266 202.488 85.6668 201.863 86.8792C201.238 88.0916 200.341 89.1433 199.241 89.9523L179.265 105.172C178.812 105.505 178.264 105.685 177.702 105.685Z" fill="#CCCCCC"/>
<path d="M157.48 33.2076V26.1122L170.17 20.5808L182.271 26.1122V33.2076C182.271 33.5164 182.148 33.8126 181.93 34.031C181.711 34.2494 181.414 34.3721 181.105 34.3721H158.646C158.337 34.3721 158.04 34.2494 157.821 34.031C157.603 33.8126 157.48 33.5164 157.48 33.2076Z" fill="#2F2E41"/>
<path d="M169.588 16.2446C167.722 10.2832 171.641 3.4512 177.434 1.09153C183.228 -1.26815 190.159 0.381336 195.047 4.27987C199.936 8.1784 202.969 14.0177 204.576 20.0537C206.183 26.0898 206.488 32.384 206.785 38.6225C213.903 39.9276 218.745 48.3544 216.279 55.1459C213.813 61.9373 204.686 65.3113 198.383 61.7616C192.08 58.2119 190.255 48.6699 194.804 43.0517C196.956 40.3933 198.159 37.0941 198.221 33.6766C198.282 30.2591 197.2 26.9187 195.145 24.1844C193.09 21.4502 190.18 19.4784 186.876 18.5813C183.572 17.6842 180.062 17.9132 176.903 19.2319C173.395 20.6963 168.993 16.8917 169.588 16.2446Z" fill="#2F2E41"/>
<path d="M89.6082 58.8556C81.086 58.7998 72.6704 56.96 64.9051 53.4553C64.4428 53.2496 64.0505 52.9142 63.7758 52.49C63.5012 52.0657 63.3561 51.5708 63.3582 51.0657V29.8613C63.3589 29.1666 63.6358 28.5006 64.1279 28.0094C64.62 27.5182 65.2872 27.242 65.9832 27.2412H113.233C113.929 27.242 114.596 27.5183 115.088 28.0095C115.581 28.5007 115.857 29.1666 115.858 29.8613V51.0657C115.86 51.5709 115.715 52.0657 115.44 52.49C115.166 52.9143 114.773 53.2497 114.311 53.4553C106.546 56.96 98.1303 58.7998 89.6082 58.8556Z" fill="#3F905C"/>
<path d="M89.6018 41.6775C89.2515 41.6778 88.9047 41.6082 88.5818 41.4728L51.1131 25.694C50.6299 25.4905 50.2189 25.1473 49.933 24.7085C49.6471 24.2696 49.4994 23.7554 49.509 23.2321C49.5186 22.7087 49.6851 22.2002 49.9869 21.7721C50.2887 21.3441 50.7121 21.0161 51.2024 20.8304L88.6716 6.64229C89.2751 6.41271 89.9423 6.41413 90.5448 6.64627L127.512 20.8344C127.999 21.0215 128.42 21.3496 128.72 21.7766C129.019 22.2037 129.185 22.7103 129.194 23.2316C129.204 23.7529 129.057 24.2652 128.774 24.703C128.49 25.1408 128.082 25.4841 127.602 25.6891L90.6343 41.4676C90.3078 41.6064 89.9566 41.6778 89.6018 41.6775Z" fill="#3F905C"/>
<path d="M67.7332 54.8981C69.6662 54.8981 71.2332 53.334 71.2332 51.4046C71.2332 49.4752 69.6662 47.9111 67.7332 47.9111C65.8002 47.9111 64.2332 49.4752 64.2332 51.4046C64.2332 53.334 65.8002 54.8981 67.7332 54.8981Z" fill="#3F3D56"/>
<path opacity="0.2" d="M127.729 23.4495L90.7617 39.228C90.4735 39.351 90.1634 39.4148 89.85 39.4155C89.5365 39.4163 89.2262 39.354 88.9374 39.2324L51.4687 23.4541C50.9982 23.2606 50.6056 22.9162 50.3531 22.4753C50.1878 22.7612 50.0855 23.079 50.0527 23.4075C50.02 23.7359 50.0576 24.0676 50.1631 24.3805C50.2686 24.6933 50.4396 24.9802 50.6647 25.222C50.8898 25.4638 51.1639 25.6551 51.4687 25.7831L88.9374 41.5614C89.2262 41.683 89.5365 41.7453 89.85 41.7445C90.1634 41.7438 90.4735 41.68 90.7617 41.557L127.729 25.7785C128.033 25.6493 128.305 25.4575 128.529 25.2155C128.752 24.9736 128.922 24.6871 129.026 24.3749C129.131 24.0627 129.167 23.732 129.134 23.4045C129.101 23.0771 128.999 22.7603 128.834 22.4752C128.584 22.9127 128.195 23.2552 127.729 23.4495Z" fill="black"/>
<path d="M68.0274 51.3909C68.1821 51.3909 68.3305 51.3296 68.4399 51.2204C68.5493 51.1112 68.6108 50.9631 68.6108 50.8087V31.3257L87.8498 24.3299C88.0045 24.3322 88.1538 24.2731 88.2648 24.1655C88.3758 24.0579 88.4395 23.9108 88.4418 23.7563C88.4441 23.6019 88.3849 23.4529 88.2771 23.3421C88.1694 23.2313 88.0219 23.1677 87.8672 23.1654L68.6281 30.1612C68.4733 30.1577 68.3194 30.1855 68.1757 30.2431C68.0319 30.3007 67.9014 30.3868 67.792 30.4961C67.6814 30.6042 67.5937 30.7333 67.5339 30.8758C67.4742 31.0183 67.4436 31.1713 67.4441 31.3257V50.8087C67.4441 50.9631 67.5056 51.1112 67.615 51.2204C67.7244 51.3296 67.8727 51.3909 68.0274 51.3909Z" fill="#3F3D56"/>
</svg>
