<svg width="122" height="110" viewBox="0 0 122 110" fill="none" xmlns="http://www.w3.org/2000/svg">
<path d="M13.3386 30.3901C9.19214 27.8048 5.45973 24.6093 2.26741 20.9115C2.04748 20.6516 1.91547 20.3289 1.89019 19.9895C1.86492 19.65 1.9477 19.3113 2.12671 19.0217L8.04475 9.52495C8.26892 9.16615 8.62639 8.91084 9.03873 8.81503C9.45106 8.71921 9.88463 8.79071 10.2443 9.01385L34.1015 23.8548C34.4607 24.0788 34.7162 24.436 34.8121 24.8479C34.908 25.2599 34.8364 25.6931 34.6131 26.0524L28.6985 35.5436C28.517 35.8351 28.2466 36.0605 27.927 36.1865C27.6074 36.3126 27.2558 36.3325 26.924 36.2435C22.1329 34.9682 17.5554 32.996 13.3386 30.3901Z" fill="#3F905C"/>
<path opacity="0.2" d="M34.342 25.8837L33.3529 27.471L17.6239 23.9635C17.3308 23.8966 17.0703 23.7293 16.8878 23.4906L7.40771 11.1509L8.31585 9.6936C8.4956 9.40702 8.78155 9.20315 9.11125 9.12654C9.44095 9.04993 9.78758 9.1068 10.0754 9.28472L33.9328 24.1257C34.2196 24.3053 34.4237 24.591 34.5004 24.9204C34.577 25.2498 34.5201 25.5961 34.342 25.8837Z" fill="black"/>
<path d="M18.4065 21.9032C18.2438 21.8021 18.1006 21.6726 17.9837 21.5208L3.81646 3.08197C3.61616 2.82125 3.50134 2.50509 3.4877 2.1767C3.47406 1.84831 3.56226 1.5237 3.74024 1.24729C3.91822 0.970876 4.17731 0.756139 4.48207 0.632405C4.78683 0.50867 5.12241 0.48198 5.44292 0.556004L26.5456 5.43185C26.8859 5.51159 27.1911 5.69964 27.4152 5.96769L42.802 24.5129C43.0145 24.7691 43.1416 25.0853 43.1654 25.4172C43.1891 25.749 43.1085 26.08 42.9346 26.3639C42.7608 26.6477 42.5025 26.8701 42.1959 26.9999C41.8892 27.1298 41.5497 27.1606 41.2246 27.0881L18.9021 22.1061C18.7266 22.0668 18.5591 21.9982 18.4065 21.9032Z" fill="#3F905C"/>
<path d="M1.88602 10.9563L1.34375 10.6187L6.23888 2.76361L22.7766 13.0514L22.4387 13.5925L6.44328 3.64235L1.88602 10.9563Z" fill="#3F3D56"/>
<path d="M1.27744 12.6055C1.98294 12.6055 2.55487 12.034 2.55487 11.3291C2.55487 10.6243 1.98294 10.0528 1.27744 10.0528C0.571927 10.0528 0 10.6243 0 11.3291C0 12.034 0.571927 12.6055 1.27744 12.6055Z" fill="#3F3D56"/>
<path d="M79.8868 91.5395C95.079 91.5395 107.395 79.2346 107.395 64.0557C107.395 48.8769 95.079 36.572 79.8868 36.572C64.6946 36.572 52.3789 48.8769 52.3789 64.0557C52.3789 79.2346 64.6946 91.5395 79.8868 91.5395Z" fill="#2F2E41"/>
<path d="M98.9568 78.3064L91.8262 82.6605L99.634 95.4249L106.765 91.0709L98.9568 78.3064Z" fill="#2F2E41"/>
<path d="M84.6955 87.0145L77.5649 91.3685L85.3728 104.133L92.5034 99.7789L84.6955 87.0145Z" fill="#2F2E41"/>
<path d="M102.275 97.074C105.557 95.0701 107.607 92.4488 106.855 91.2193C106.103 89.9897 102.833 90.6174 99.5511 92.6213C96.2693 94.6252 94.2186 97.2464 94.9707 98.476C95.7228 99.7056 98.993 99.0779 102.275 97.074Z" fill="#2F2E41"/>
<path d="M87.8323 105.485C91.1141 103.481 93.1648 100.86 92.4127 99.6305C91.6606 98.4009 88.3905 99.0286 85.1087 101.033C81.8269 103.036 79.7762 105.658 80.5283 106.887C81.2805 108.117 84.5506 107.489 87.8323 105.485Z" fill="#2F2E41"/>
<path d="M64.4197 59.4482C66.2913 57.5797 62.9792 51.2361 57.0219 45.2794C51.0646 39.3227 44.718 36.0086 42.8464 37.8772C40.9748 39.7457 44.2869 46.0893 50.2442 52.046C56.2015 58.0026 62.5481 61.3167 64.4197 59.4482Z" fill="#2F2E41"/>
<path d="M117.078 87.3511C119.252 85.8434 117.116 79.0139 112.309 72.0971C107.502 65.1803 101.844 60.7953 99.6705 62.3031C97.4972 63.8108 99.6322 70.6403 104.439 77.5571C109.246 84.4739 114.905 88.8589 117.078 87.3511Z" fill="#2F2E41"/>
<path d="M71.4635 65.7252C76.6557 65.7252 80.8649 61.5197 80.8649 56.332C80.8649 51.1443 76.6557 46.9388 71.4635 46.9388C66.2712 46.9388 62.062 51.1443 62.062 56.332C62.062 61.5197 66.2712 65.7252 71.4635 65.7252Z" fill="white"/>
<path d="M68.2696 56.2723C70.0003 56.2723 71.4034 54.8705 71.4034 53.1412C71.4034 51.412 70.0003 50.0101 68.2696 50.0101C66.5388 50.0101 65.1357 51.412 65.1357 53.1412C65.1357 54.8705 66.5388 56.2723 68.2696 56.2723Z" fill="#3F3D56"/>
<path d="M59.3567 72.0007C57.574 74.919 59.9493 78.8671 64.6621 80.8189C69.3749 82.7708 74.6406 81.9873 76.4234 79.069L76.4297 79.0586C78.2079 76.1384 74.7542 73.9536 70.0396 72.0047C65.3251 70.0557 61.1348 69.0806 59.3567 72.0007Z" fill="white"/>
<path d="M70.6566 29.5465C73.1128 19.6634 83.9551 13.8474 94.8734 16.5561C105.792 19.2648 112.652 29.4726 110.195 39.3557C107.739 49.2389 99.5902 49.2708 88.6718 46.562C77.7535 43.8533 68.2003 39.4297 70.6566 29.5465Z" fill="#3F905C"/>
</svg>
