<svg width="82" height="83" viewBox="0 0 82 83" fill="none" xmlns="http://www.w3.org/2000/svg">
<path d="M41.127 70.8907C56.3192 70.8907 68.6348 58.5858 68.6348 43.4069C68.6348 28.2281 56.3192 15.9232 41.127 15.9232C25.9348 15.9232 13.6191 28.2281 13.6191 43.4069C13.6191 58.5858 25.9348 70.8907 41.127 70.8907Z" fill="#2F2E41"/>
<path d="M36.9481 64.9764H28.5913V79.9359H36.9481V64.9764Z" fill="#2F2E41"/>
<path d="M53.662 64.9764H45.3052V79.9359H53.662V64.9764Z" fill="#2F2E41"/>
<path d="M35.5553 82.7191C39.4015 82.7191 42.5194 81.5509 42.5194 80.1099C42.5194 78.6689 39.4015 77.5007 35.5553 77.5007C31.7092 77.5007 28.5913 78.6689 28.5913 80.1099C28.5913 81.5509 31.7092 82.7191 35.5553 82.7191Z" fill="#2F2E41"/>
<path d="M52.2692 82.3712C56.1153 82.3712 59.2332 81.203 59.2332 79.762C59.2332 78.321 56.1153 77.1528 52.2692 77.1528C48.4231 77.1528 45.3052 78.321 45.3052 79.762C45.3052 81.203 48.4231 82.3712 52.2692 82.3712Z" fill="#2F2E41"/>
<path d="M70.7694 31.3971C76.7267 25.4404 80.0388 19.0968 78.1672 17.2283C76.2956 15.3597 69.949 18.6738 63.9917 24.6305C58.0344 30.5872 54.7223 36.9308 56.5939 38.7993C58.4656 40.6678 64.8121 37.3538 70.7694 31.3971Z" fill="#2F2E41"/>
<path d="M16.5741 56.9083C21.3811 49.9915 23.5162 43.162 21.3429 41.6543C19.1696 40.1465 13.5109 44.5315 8.70388 51.4483C3.89686 58.3651 1.76181 65.1946 3.93511 66.7023C6.10841 68.21 11.7671 63.8251 16.5741 56.9083Z" fill="#2F2E41"/>
<path d="M39.9693 48.9052C45.1616 48.9052 49.3707 44.6998 49.3707 39.5121C49.3707 34.3244 45.1616 30.1189 39.9693 30.1189C34.777 30.1189 30.5679 34.3244 30.5679 39.5121C30.5679 44.6998 34.777 48.9052 39.9693 48.9052Z" fill="white"/>
<path d="M43.1631 39.4523C44.8939 39.4523 46.2969 38.0505 46.2969 36.3213C46.2969 34.592 44.8939 33.1902 43.1631 33.1902C41.4324 33.1902 40.0293 34.592 40.0293 36.3213C40.0293 38.0505 41.4324 39.4523 43.1631 39.4523Z" fill="#3F3D56"/>
<path d="M51.2411 56.8844C52.1634 60.2036 48.804 63.3842 43.7378 63.9884C38.6715 64.5926 33.8167 62.3917 32.8945 59.0725L32.8912 59.0607C31.9738 55.7409 35.8917 54.5662 40.9589 53.9652C46.0261 53.3642 50.3239 53.5646 51.2411 56.8844Z" fill="white"/>
<path d="M31.5018 27.2316C26.9652 29.0488 22.1801 30.1717 17.3082 30.5627C16.9684 30.5865 16.6297 30.5024 16.3406 30.3224C16.0515 30.1424 15.8268 29.8756 15.6986 29.5603L11.5215 19.1809C11.364 18.7883 11.3688 18.3493 11.5349 17.9602C11.7009 17.5711 12.0147 17.2637 12.4073 17.1055L38.4819 6.63018C38.8749 6.47284 39.3142 6.47766 39.7037 6.64358C40.0931 6.80949 40.4007 7.12297 40.5591 7.51522L44.7338 17.8886C44.8622 18.207 44.8846 18.5582 44.7977 18.8903C44.7108 19.2224 44.5193 19.5178 44.2514 19.7327C40.3924 22.8433 36.0966 25.3699 31.5018 27.2316Z" fill="#3F905C"/>
<path opacity="0.2" d="M40.2628 7.6342L40.9609 9.36899L28.8406 19.9815C28.6135 20.1784 28.3245 20.2896 28.0239 20.2959L12.4586 20.6545L11.8177 19.0618C11.6923 18.7476 11.6965 18.3967 11.8292 18.0856C11.962 17.7745 12.2126 17.5285 12.5263 17.4015L38.601 6.92618C38.9154 6.80092 39.2667 6.80507 39.578 6.93773C39.8894 7.07039 40.1356 7.32078 40.2628 7.6342Z" fill="black"/>
<path d="M27.6384 18.1339C27.4606 18.2055 27.2714 18.2445 27.0799 18.2492L3.82022 18.7863C3.49134 18.7939 3.16817 18.6998 2.89485 18.5169C2.62152 18.334 2.41136 18.0712 2.29317 17.7645C2.17497 17.4578 2.15446 17.122 2.23445 16.8032C2.31445 16.4844 2.49104 16.1981 2.74008 15.9833L19.1386 1.84552C19.4039 1.61816 19.736 1.48309 20.0849 1.46065L44.1505 0.00292434C44.4829 -0.0172099 44.8133 0.0670053 45.0955 0.243792C45.3776 0.420578 45.5974 0.681087 45.724 0.988849C45.8506 1.29661 45.8778 1.63623 45.8016 1.96017C45.7255 2.2841 45.5498 2.57614 45.2993 2.79541L28.0948 17.8542C27.9596 17.9725 27.8052 18.0671 27.6384 18.1339Z" fill="#3F905C"/>
<path d="M9.0417 24.9919L8.44896 25.23L4.99414 16.6448L23.0686 9.38324L23.3068 9.97545L5.82447 16.999L9.0417 24.9919Z" fill="#3F3D56"/>
<path d="M8.98348 26.9794C9.68899 26.9794 10.2609 26.408 10.2609 25.7031C10.2609 24.9982 9.68899 24.4268 8.98348 24.4268C8.27798 24.4268 7.70605 24.9982 7.70605 25.7031C7.70605 26.408 8.27798 26.9794 8.98348 26.9794Z" fill="#3F3D56"/>
</svg>
